<svg xmlns="http://www.w3.org/2000/svg" width="24" height="24" viewBox="0 0 24 24">
  <g id="Layer_2" data-name="Layer 2" transform="translate(-286 -408.5)">
    <g id="linkedin">
      <rect id="background" width="24" height="24" rx="3.273" transform="translate(286 408.5)" fill="#0066a8"/>
      <g id="icon">
        <path id="Path_52654" data-name="Path 52654" d="M294.645,415.045A2.045,2.045,0,1,1,292.6,413,2.045,2.045,0,0,1,294.645,415.045Z" fill="#fff"/>
        <path id="Path_52655" data-name="Path 52655" d="M294.182,418.455v9.036a.507.507,0,0,1-.5.509H291.52a.505.505,0,0,1-.507-.505v-9.04a.507.507,0,0,1,.507-.508h2.156a.508.508,0,0,1,.506.508Z" fill="#fff"/>
        <path id="Path_52656" data-name="Path 52656" d="M305.451,423.159v4.375a.465.465,0,0,1-.464.466h-2.321a.465.465,0,0,1-.466-.464v-4.242c0-.633.185-2.771-1.654-2.771-1.425,0-1.716,1.463-1.773,2.121v4.89a.466.466,0,0,1-.459.466h-2.239a.465.465,0,0,1-.465-.465h0v-9.119a.463.463,0,0,1,.463-.466h2.241a.466.466,0,0,1,.466.466v.788a3.175,3.175,0,0,1,2.986-1.406c3.707,0,3.685,3.461,3.685,5.362Z" fill="#fff"/>
      </g>
    </g>
  </g>
</svg>
