<svg id="youtube" xmlns="http://www.w3.org/2000/svg" width="24" height="16.804" viewBox="0 0 24 16.804">
  <path id="youtube-2" data-name="youtube" d="M23.506,2.439A3.007,3.007,0,0,0,21.39.324C19.512-.19,12-.19,12-.19S4.488-.19,2.61.3A3.068,3.068,0,0,0,.494,2.439,31.682,31.682,0,0,0,0,8.212a31.565,31.565,0,0,0,.494,5.773A3.007,3.007,0,0,0,2.61,16.1c1.9.514,9.39.514,9.39.514s7.512,0,9.39-.494A3.007,3.007,0,0,0,23.506,14,31.692,31.692,0,0,0,24,8.232a30.074,30.074,0,0,0-.494-5.792Zm-13.9,9.37v-7.2l6.247,3.6Zm0,0" transform="translate(0 0.19)" fill="#e50000"/>
</svg>
