<?xml version="1.0" encoding="UTF-8" standalone="no"?><!-- Created with Inkscape (http://www.inkscape.org/) -->
<svg version="1.1" id="svg1245" xml:space="preserve" width="682.66669" height="682.66669"
    viewBox="0 0 682.66669 682.66669" xmlns="http://www.w3.org/2000/svg"
    xmlns:svg="http://www.w3.org/2000/svg"><defs     id="defs1249"><clipPath       clipPathUnits="userSpaceOnUse"       id="clipPath1259"><path         d="M 0,512 H 512 V 0 H 0 Z"         id="path1257" /></clipPath></defs><g     id="g1251"     transform="matrix(1.3333333,0,0,-1.3333333,0,682.66667)"><g       id="g1253"><g         id="g1255"         clip-path="url(#clipPath1259)"><g           id="g1261"           transform="translate(271.5,20)"><path             d="m 0,0 h -151.5 c -55.229,0 -100,44.771 -100,100 v 272 c 0,55.229 44.771,100 100,100 h 272 c 55.229,0 100,-44.771 100,-100 V 227"             style="fill:none;stroke:#000000;stroke-width:40;stroke-linecap:round;stroke-linejoin:round;stroke-miterlimit:10;stroke-dasharray:none;stroke-opacity:1"             id="path1263" /></g><g           id="g1265"           transform="translate(194,374)"><path             d="M 0,0 H 204"             style="fill:none;stroke:#000000;stroke-width:40;stroke-linecap:round;stroke-linejoin:round;stroke-miterlimit:10;stroke-dasharray:none;stroke-opacity:1"             id="path1267" /></g><g           id="g1269"           transform="translate(194,256)"><path             d="M 0,0 H 204"             style="fill:none;stroke:#000000;stroke-width:40;stroke-linecap:round;stroke-linejoin:round;stroke-miterlimit:10;stroke-dasharray:none;stroke-opacity:1"             id="path1271" /></g><g           id="g1273"           transform="translate(194,138)"><path             d="M 0,0 H 39"             style="fill:none;stroke:#000000;stroke-width:40;stroke-linecap:round;stroke-linejoin:round;stroke-miterlimit:10;stroke-dasharray:none;stroke-opacity:1"             id="path1275" /></g><g           id="g1277"           transform="translate(402,133)"><path             d="m 0,0 c 0,24.929 -20.147,45 -45,45 -24.853,0 -45,-20.209 -45,-45.138 0.876,-43.368 29.753,-78.593 63.963,-104.209 15.408,-11.538 36.666,-11.538 52.074,0 C 60.247,-78.731 89.124,-43.506 90,-0.138 90,24.791 69.853,45 45,45 20.147,45 0,24.929 0,0"             style="fill:none;stroke:#000000;stroke-width:40;stroke-linecap:round;stroke-linejoin:round;stroke-miterlimit:10;stroke-dasharray:none;stroke-opacity:1"             id="path1279" /></g><g           id="g1281"           transform="translate(139,373)"><path             d="m 0,0 v 0 c 0,-13.807 -11.193,-25 -25,-25 -13.808,0 -25,11.193 -25,25 0,13.807 11.192,25 25,25 C -11.193,25 0,13.807 0,0"             style="fill:#000000;fill-opacity:1;fill-rule:nonzero;stroke:none"             id="path1283" /></g><g           id="g1285"           transform="translate(139,256)"><path             d="m 0,0 v 0 c 0,-13.807 -11.193,-25 -25,-25 -13.808,0 -25,11.193 -25,25 0,13.807 11.192,25 25,25 C -11.193,25 0,13.807 0,0"             style="fill:#000000;fill-opacity:1;fill-rule:nonzero;stroke:none"             id="path1287" /></g><g           id="g1289"           transform="translate(139,138)"><path             d="m 0,0 v 0 c 0,-13.807 -11.193,-25 -25,-25 -13.808,0 -25,11.193 -25,25 0,13.807 11.192,25 25,25 C -11.193,25 0,13.807 0,0"             style="fill:#000000;fill-opacity:1;fill-rule:nonzero;stroke:none"             id="path1291" /></g></g></g></g></svg>