<svg xmlns="http://www.w3.org/2000/svg" width="30" height="30" viewBox="0 0 30 30">
  <g id="Change_photo" data-name="Change photo" transform="translate(-203.719 -186.719)">
    <circle id="bg_icon-camemra" cx="15" cy="15" r="15" transform="translate(203.719 186.719)" fill="rgba(0,0,0,0.3)"/>
    <path id="icon_camera" d="M2.33,3.33V1H3.884V3.33h2.33V4.884H3.884v2.33H2.33V4.884H0V3.33Zm2.33,4.661V5.661h2.33V3.33h5.437L13.85,4.884h2.462a1.558,1.558,0,0,1,1.554,1.554v9.321a1.558,1.558,0,0,1-1.554,1.554H3.884A1.558,1.558,0,0,1,2.33,15.759V7.991ZM10.1,14.982A3.884,3.884,0,1,0,6.214,11.1,3.885,3.885,0,0,0,10.1,14.982ZM7.612,11.1A2.486,2.486,0,1,0,10.1,8.612,2.483,2.483,0,0,0,7.612,11.1Z" transform="translate(208.936 191.713)" fill="#fff"/>
  </g>
</svg>
