<?xml version="1.0"?>
<svg xmlns="http://www.w3.org/2000/svg" viewBox="0 0 512 512" width="512" height="512">
    <g id="_OUTLINE" data-name=" OUTLINE">
        <path
            d="M250.02637,180.91113A550.7811,550.7811,0,0,0,115.97363,468.26172L112.084,494.8418l15.832,2.3164,3.88964-26.58008a534.82424,534.82424,0,0,1,130.168-279.02636Z" />
        <rect x="352" y="480" width="24" height="16" />
        <path
            d="M472,224H440V136a31.99577,31.99577,0,0,0-60.76514-14.0061A217.54984,217.54984,0,0,0,359.522,105.70239,536.58429,536.58429,0,0,1,433.0354,63.5332L420.61328,88.37695l14.31055,7.15625L461.7832,41.81738,408.06641,14.958l-7.15625,14.31054,32.7124,16.35621A552.576,552.576,0,0,0,345.29761,96.1106a215.82846,215.82846,0,0,0-30.64453-15.70484A84.61883,84.61883,0,0,0,336,24V16h-8a84.69956,84.69956,0,0,0-60.28418,24.96973L254.07324,54.61328,188.7666,28.49023a23.97657,23.97657,0,0,0-25.88379,5.3125l-24.03906,24.04,28.69116,15.93946A216.05729,216.05729,0,0,0,93.9707,446.15137l10.23047-12.30274A201.09372,201.09372,0,0,1,71.99023,400h1.38282A30.66172,30.66172,0,0,0,104,369.37305a14.529,14.529,0,0,1,4.28418-10.34278l18.74609-18.74609A30.42877,30.42877,0,0,0,136,318.627v-5.2539a30.42877,30.42877,0,0,0-8.96973-21.65723l-9.373-9.37305a30.66343,30.66343,0,0,0-43.31446,0l-1.373,1.37305A14.529,14.529,0,0,1,62.627,288H32.17725C32.07178,285.34033,32,282.67529,32,280a200.1092,200.1092,0,0,1,1.45312-24H63.0293a24.97109,24.97109,0,0,0,17.65722-42.62793L54.75659,187.44214A199.94662,199.94662,0,0,1,187.63281,84.94775l23.21094,12.895L160,148.68652v23.49707l-33.92676-13.57031-36.30859,36.3086,48.081,19.23242,19.23242,48.081,36.3086-36.30859L179.81641,192h23.49707l50.84375-50.84375,40,72,24.04-24.03906a23.97294,23.97294,0,0,0,5.3125-25.88379l-26.123-65.30664,5.12768-5.12744a198.63692,198.63692,0,0,1,28.68091,13.53808q-4.853,3.63721-9.63672,7.36865l9.875,12.5879q7.04077-5.5232,14.26221-10.80274A201.20571,201.20571,0,0,1,376,141.23535V224H344a24.0275,24.0275,0,0,0-24,24V440a23.90623,23.90623,0,0,0,6.43945,16.33545A198.67628,198.67628,0,0,1,296,469.5249V462.627a23.84338,23.84338,0,0,0-7.0293-16.9707l-14.627-14.627A7.94368,7.94368,0,0,1,272,425.37305V416a8.00917,8.00917,0,0,1,8-8,24.0275,24.0275,0,0,0,24-24V360a24.0275,24.0275,0,0,0-24-24H262.627a23.84338,23.84338,0,0,0-16.9707,7.0293l-38.62695,38.627A7.94368,7.94368,0,0,1,201.37305,384H192a24.0275,24.0275,0,0,0-24,24v17.373a23.84338,23.84338,0,0,0,7.0293,16.9707l6.62695,6.627A7.94368,7.94368,0,0,1,184,454.627v19.5791a198.53459,198.53459,0,0,1-28.9209-9.53125l-6.1582,14.76758A216.40079,216.40079,0,0,0,345.18945,464H472a24.0275,24.0275,0,0,0,24-24V248A24.0275,24.0275,0,0,0,472,224ZM62.627,304a30.42877,30.42877,0,0,0,21.65723-8.96973l1.373-1.373a14.62436,14.62436,0,0,1,20.68554,0l9.373,9.373A14.529,14.529,0,0,1,120,313.37305v5.2539a14.529,14.529,0,0,1-4.28418,10.34278L96.96973,347.71582A30.42877,30.42877,0,0,0,88,369.37305,14.64338,14.64338,0,0,1,73.37305,384h-12.252a199.22614,199.22614,0,0,1-27.67163-80Zm6.74512-79.31348A8.97,8.97,0,0,1,63.0293,240H36.04346A199.25713,199.25713,0,0,1,47.519,202.8335Zm93.54981,9.07813L150.1543,201.8457l-31.919-12.76758,11.69141-11.6914L161.8457,190.1543l12.76758,31.91894ZM299.71582,72.96973,278.61328,94.07324l30.041,75.10156a7.98914,7.98914,0,0,1-1.77149,8.62793l-9.04,9.041-40-72L196.68652,176H176V155.31348l61.15625-61.15625L190.521,68.24878l-.0503-.25855c-.10132.01978-.20141.04248-.30273.0625l-25.01172-13.8955,9.041-9.04a7.99058,7.99058,0,0,1,8.62793-1.77149l75.10156,30.041,21.10351-21.10254a68.73036,68.73036,0,0,1,40.45508-19.76953A68.73036,68.73036,0,0,1,299.71582,72.96973ZM280,474.18408a201.4174,201.4174,0,0,1-80,3.26612V454.627a23.84338,23.84338,0,0,0-7.0293-16.9707l-6.62695-6.627A7.94368,7.94368,0,0,1,184,425.37305V408a8.00917,8.00917,0,0,1,8-8h9.37305a23.84338,23.84338,0,0,0,16.9707-7.0293l38.627-38.627A7.94368,7.94368,0,0,1,262.627,352H280a8.00917,8.00917,0,0,1,8,8v24a8.00917,8.00917,0,0,1-8,8,24.0275,24.0275,0,0,0-24,24v9.373a23.84338,23.84338,0,0,0,7.0293,16.9707l14.627,14.627A7.94368,7.94368,0,0,1,280,462.627ZM392,136a16,16,0,0,1,32,0v88H392Zm88,304a8.00917,8.00917,0,0,1-8,8H344a8.00917,8.00917,0,0,1-8-8V248a8.00917,8.00917,0,0,1,8-8H472a8.00917,8.00917,0,0,1,8,8Z" />
        <rect x="448" y="480" width="24" height="16" />
        <rect x="360" y="256" width="16" height="176" />
        <rect x="400" y="256" width="16" height="176" />
        <rect x="440" y="256" width="16" height="176" />
        <path 
            d="M240,264v4.68555L220.68555,288A15.89747,15.89747,0,0,0,216,299.31348V304a16.01833,16.01833,0,0,0,16,16h20.68652A15.89747,15.89747,0,0,0,264,315.31445L275.31348,304H288a16.01833,16.01833,0,0,0,16-16V264a16.01833,16.01833,0,0,0-16-16H256A16.01833,16.01833,0,0,0,240,264Zm16,4.68652V264h32v24H275.31348A15.89747,15.89747,0,0,0,264,292.68555L252.68652,304H232v-4.68555L251.31445,280A15.89747,15.89747,0,0,0,256,268.68652Z" />
    </g>
</svg>