<svg id="Layer_1" enable-background="new 0 0 24 24" height="512" viewBox="0 0 24 24" width="512"
    xmlns="http://www.w3.org/2000/svg">
    <g>
        <g>
            <path d="m20.8 10.5h-18c-.6 0-1-.4-1-1s.4-1 1-1h18c.6 0 1 .4 1 1s-.4 1-1 1z"
                fill="rgb(0,0,0)" />
        </g>
        <g>
            <path
                d="m20.8 10.5c-.3 0-.5-.1-.7-.3l-6-6c-.4-.4-.4-1 0-1.4s1-.4 1.4 0l6 6c.4.4.4 1 0 1.4-.2.2-.4.3-.7.3z"
                fill="rgb(0,0,0)" />
        </g>
        <g>
            <path d="m21.2 15.5h-18c-.6 0-1-.4-1-1s.4-1 1-1h18c.6 0 1 .4 1 1s-.4 1-1 1z"
                fill="rgb(0,0,0)" />
        </g>
        <g>
            <path
                d="m9.2 21.5c-.3 0-.5-.1-.7-.3l-6-6c-.4-.4-.4-1 0-1.4s1-.4 1.4 0l6 6c.4.4.4 1 0 1.4-.2.2-.4.3-.7.3z"
                fill="rgb(0,0,0)" />
        </g>
    </g>
</svg>