<?xml version="1.0" encoding="iso-8859-1"?><!-- Generator: Adobe Illustrator 19.0.0, SVG Export Plug-In .
SVG Version: 6.00 Build 0)  -->
<svg version="1.1" id="Layer_1" xmlns="http://www.w3.org/2000/svg"
    xmlns:xlink="http://www.w3.org/1999/xlink" x="0px" y="0px" viewBox="0 0 512 512"
    style="enable-background:new 0 0 512 512;" xml:space="preserve"><path style="fill:#CCCCCC;" d="M228.769,134.159L7.488,178.284v231.731c0,15.415,12.496,27.91,27.91,27.91h386.741	c15.415,0,27.91-12.496,27.91-27.91V178.284L228.769,134.159z"/><path style="fill:#EE534F;" d="M422.139,90.035H35.398c-15.415,0-27.91,12.496-27.91,27.91v60.338H450.05v-60.338	C450.05,102.531,437.554,90.035,422.139,90.035z"/><path style="opacity:0.1;enable-background:new    ;" d="M385.869,202.972c-81.935,0-148.595,66.659-148.595,148.594	c0,32.181,10.287,62.004,27.74,86.358h157.125c15.415,0,27.911-12.496,27.911-27.911V217.561	C430.612,208.214,408.842,202.972,385.869,202.972z"/><circle style="fill:#4FC2F8;" cx="385.873" cy="351.567" r="118.643"/><circle style="fill:#FFFFFF;" cx="385.873" cy="351.567" r="85.456"/><path style="opacity:0.1;enable-background:new    ;" d="M320.384,351.566c0-43.815,32.982-79.906,75.469-84.855	c-3.278-0.381-6.605-0.6-9.984-0.6c-47.195,0-85.454,38.259-85.454,85.454s38.259,85.454,85.454,85.454	c3.38,0,6.706-0.218,9.984-0.6C353.366,431.474,320.384,395.382,320.384,351.566z"/><g>	<path style="fill:#666666;" d="M81.285,41.791c-12.332,0-22.328,9.996-22.328,22.328v51.831c0,12.332,9.996,22.328,22.328,22.328		s22.328-9.996,22.328-22.328V64.119C103.614,51.788,93.617,41.791,81.285,41.791z"/>	<path style="fill:#666666;" d="M179.608,41.791c-12.332,0-22.328,9.996-22.328,22.328v51.831c0,12.332,9.996,22.328,22.328,22.328		s22.328-9.996,22.328-22.328V64.119C201.936,51.788,191.939,41.791,179.608,41.791z"/>	<path style="fill:#666666;" d="M277.93,41.791c-12.332,0-22.328,9.996-22.328,22.328v51.831c0,12.332,9.996,22.328,22.328,22.328		s22.328-9.996,22.328-22.328V64.119C300.259,51.788,290.262,41.791,277.93,41.791z"/>	<path style="fill:#666666;" d="M376.252,41.791c-12.332,0-22.328,9.996-22.328,22.328v51.831c0,12.332,9.996,22.328,22.328,22.328		c12.332,0,22.328-9.996,22.328-22.328V64.119C398.581,51.788,388.584,41.791,376.252,41.791z"/></g><path d="M317.499,299.79c-3.5-2.204-8.124-1.15-10.326,2.349c-9.319,14.809-14.246,31.901-14.246,49.427	c0,51.248,41.693,92.942,92.942,92.942s92.942-41.693,92.942-92.942s-41.693-92.942-92.942-92.942	c-20.962,0-40.764,6.834-57.265,19.763c-3.256,2.551-3.827,7.258-1.276,10.512c2.55,3.255,7.259,3.827,10.512,1.276	c13.84-10.844,30.448-16.576,48.029-16.576c42.99,0,77.965,34.975,77.965,77.965s-34.975,77.965-77.965,77.965	s-77.965-34.975-77.965-77.965c0-14.701,4.13-29.034,11.944-41.451C322.051,306.615,320.998,301.992,317.499,299.79z"/><path d="M385.869,296.52c-4.135,0-7.488,3.353-7.488,7.488v58.731c0,4.135,3.353,7.488,7.488,7.488H444.6	c4.135,0,7.488-3.353,7.488-7.488s-3.353-7.488-7.488-7.488h-51.242v-51.242C393.358,299.872,390.005,296.52,385.869,296.52z"/><path d="M457.539,247.837V117.946c0-19.518-15.88-35.398-35.399-35.398h-16.071V64.119c0-16.441-13.375-29.816-29.816-29.816	s-29.816,13.375-29.816,29.816v18.428h-38.689V64.119c0-16.441-13.375-29.816-29.816-29.816s-29.816,13.375-29.816,29.816v18.428	h-38.689V64.119c0-16.441-13.375-29.816-29.816-29.816s-29.816,13.375-29.816,29.816v18.428h-38.689V64.119	c0-16.441-13.375-29.816-29.816-29.816S51.469,47.678,51.469,64.119v18.428H35.398C15.88,82.547,0,98.426,0,117.946v3.694	c0,4.135,3.353,7.488,7.488,7.488s7.488-3.353,7.488-7.488v-3.694c0-11.26,9.162-20.422,20.422-20.422h16.071c0,0,0,18.427,0,18.428	c0,16.441,13.375,29.816,29.816,29.816s29.816-13.375,29.816-29.817V97.524h38.689c0,0,0,18.427,0,18.428	c0,16.441,13.375,29.816,29.816,29.816s29.816-13.375,29.816-29.817V97.524h38.689c0,0,0,18.427,0,18.428	c0,16.441,13.375,29.816,29.816,29.816s29.816-13.375,29.816-29.817V97.524h38.689c0,0,0,18.427,0,18.428	c0,16.441,13.375,29.816,29.816,29.816c16.441,0,29.816-13.375,29.816-29.817V97.524h16.071c11.261,0,20.423,9.162,20.423,20.422	v52.85H14.976v-19.204c0-4.135-3.353-7.488-7.488-7.488S0,147.456,0,151.592v258.422c0,19.519,15.88,35.399,35.398,35.399h266.295	c22.342,20.06,51.856,32.284,84.176,32.284c26.987,0,52.732-8.41,74.454-24.32c3.337-2.444,4.06-7.13,1.616-10.466	c-2.444-3.337-7.131-4.059-10.466-1.616c-19.137,14.017-41.822,21.425-65.605,21.425c-61.291,0-111.154-49.864-111.154-111.154	s49.864-111.154,111.154-111.154c11.09,0,22.135,1.659,32.736,4.921c0.21,0.064,0.417,0.131,0.627,0.197	c45.04,14.203,77.792,56.364,77.792,106.036c0,25.627-8.933,50.635-25.152,70.419c-2.622,3.198-2.156,7.917,1.042,10.538	c3.199,2.622,7.917,2.155,10.538-1.042C501.861,409.028,512,380.647,512,351.566C512,308.621,490.419,270.625,457.539,247.837z	 M66.446,64.119c0-8.183,6.657-14.84,14.84-14.84s14.84,6.657,14.84,14.84v51.831c0,8.183-6.657,14.84-14.84,14.84	s-14.84-6.657-14.84-14.84V64.119z M164.768,64.119c0-8.183,6.657-14.84,14.84-14.84s14.84,6.657,14.84,14.84v51.831	c0,8.183-6.657,14.84-14.84,14.84s-14.84-6.657-14.84-14.84V64.119z M263.09,64.119c0-8.183,6.657-14.84,14.84-14.84	s14.84,6.657,14.84,14.84v51.831c0,8.183-6.657,14.84-14.84,14.84s-14.84-6.657-14.84-14.84V64.119z M361.413,64.119	c0-8.183,6.657-14.84,14.84-14.84c8.183,0,14.84,6.657,14.84,14.84v51.831c0,8.183-6.657,14.84-14.84,14.84	c-8.183,0-14.84-6.657-14.84-14.84V64.119z M302.12,257.342h-21.606v-71.57h73.535v43.733	C334.498,234.605,316.784,244.294,302.12,257.342z M259.979,343.889H192v-71.57h73.536v41.42	C262.51,323.347,260.609,333.45,259.979,343.889z M103.488,343.889v-71.57h73.535v71.57H103.488z M177.025,358.866v71.57h-73.535	v-71.57H177.025z M14.976,272.319h73.535v71.57H14.976V272.319z M177.025,257.342h-73.535v-71.57h73.535V257.342z M192.001,185.772	h73.536v71.57h-73.536L192.001,185.772L192.001,185.772z M280.514,272.319h7.31c-2.594,3.203-5.033,6.535-7.31,9.984V272.319z	 M88.512,185.772v71.57H14.976v-71.57L88.512,185.772L88.512,185.772z M14.976,410.013v-51.148h73.535v71.57H35.398	C24.138,430.436,14.976,421.275,14.976,410.013z M192.001,430.436v-71.57h67.948c1.484,26.432,11.012,51.172,27.456,71.57	L192.001,430.436L192.001,430.436z M369.026,226.564v-40.792h73.536v53.099c-7.052-3.553-14.408-6.411-21.971-8.573	c-0.161-0.046-0.322-0.092-0.483-0.138c-11.124-3.142-22.679-4.725-34.237-4.725C380.158,225.437,374.537,225.825,369.026,226.564z"	/><g></g><g></g><g></g><g></g><g></g><g></g><g></g><g></g><g></g><g></g><g></g><g></g><g></g><g></g><g></g></svg>