<?xml version="1.0" encoding="UTF-8" standalone="no"?><!-- Created with Inkscape (http://www.inkscape.org/) -->
<svg version="1.1" id="svg5946" xml:space="preserve" width="682.66669" height="682.66669"
    viewBox="0 0 682.66669 682.66669" xmlns="http://www.w3.org/2000/svg"
    xmlns:svg="http://www.w3.org/2000/svg"><defs     id="defs5950"><clipPath       clipPathUnits="userSpaceOnUse"       id="clipPath5960"><path         d="M 0,512 H 512 V 0 H 0 Z"         id="path5958" /></clipPath></defs><g     id="g5952"     transform="matrix(1.3333333,0,0,-1.3333333,0,682.66667)"><g       id="g5954"><g         id="g5956"         clip-path="url(#clipPath5960)"><g           id="g5962"           transform="translate(446.9375,441.9111)"><path             d="m 0,0 -18.65,-0.806 c -91.323,-3.946 -177.846,-41.994 -242.481,-106.63 h -0.001 c -64.635,-64.635 -102.683,-151.158 -106.63,-242.481 l -0.805,-18.65 c -0.668,-15.448 5.176,-30.468 16.11,-41.401 21.549,-21.549 56.487,-21.549 78.036,0 l 74.331,74.331 -95.274,95.275 c -0.58,0.58 -0.58,1.521 0,2.101 l 165.057,165.058 c 0.58,0.58 1.522,0.58 2.102,0 l 95.274,-95.275 74.331,74.332 c 21.55,21.548 21.55,56.486 0.001,78.036 H 41.4 C 30.467,-5.177 15.448,0.667 0,0"             style="fill:#fbac90;fill-opacity:1;fill-rule:nonzero;stroke:none"             id="path5964" /></g><g           id="g5966"           transform="translate(132.5166,51.9434)"><path             d="m 0,0 c -11.426,-11.426 -26.616,-16.793 -41.578,-16.103 1.113,-1.348 2.294,-2.649 3.542,-3.897 21.549,-21.549 56.487,-21.549 78.036,0 l 74.331,74.331 -30,30 z"             style="fill:#fa9474;fill-opacity:1;fill-rule:nonzero;stroke:none"             id="path5968" /></g><g           id="g5970"           transform="translate(488.3379,425.8008)"><path             d="M 0,0 C -9.762,9.762 -22.781,15.467 -36.454,16.103 -18.525,-5.575 -19.706,-37.743 -40,-58.036 l -64.331,-64.331 30,-30 L 0,-78.036 C 21.549,-56.487 21.549,-21.549 0,0"             style="fill:#fa9474;fill-opacity:1;fill-rule:nonzero;stroke:none"             id="path5972" /></g><g           id="g5974"           transform="translate(69.4365,222.0142)"><path             d="M 0,0 C 0.602,5.675 2.382,11.248 5.341,16.324 -12.32,18.337 -30.7,12.571 -44.247,-0.975 c -23.586,-23.587 -23.586,-61.829 0,-85.416 5.193,-5.192 11.095,-9.24 17.394,-12.147 2.426,8.437 6.957,16.476 11.207,24.516 -3.456,1.606 -6.694,3.835 -9.545,6.687 -13.063,13.063 -13.063,34.242 0,47.305 6.176,6.176 14.168,9.432 22.257,9.767 C -2.265,-6.783 -1.33,-3.347 0,0"             style="fill:#f8f1f1;fill-opacity:1;fill-rule:nonzero;stroke:none"             id="path5976" /></g><g           id="g5978"           transform="translate(300.0781,457.23)"><path             d="m 0,0 c 1.424,-1.424 2.7,-2.939 3.829,-4.528 0.297,0.081 0.595,0.159 0.893,0.236 1.116,1.465 2.342,2.874 3.681,4.212 5.531,5.532 12.247,9.157 19.331,10.876 -2.22,3.266 -4.777,6.371 -7.672,9.266 -24.833,24.833 -65.094,24.833 -89.927,0 -19.441,-19.441 -23.662,-48.339 -12.663,-71.886 9.238,3.177 19.033,5.107 27.723,8.307 -8.477,13.591 -6.81,31.705 5.002,43.517 C -36.05,13.753 -13.752,13.753 0,0"             style="fill:#faf6f6;fill-opacity:1;fill-rule:nonzero;stroke:none"             id="path5980" /></g><g           id="g5982"           transform="translate(79.9785,104.5698)"><path             d="M 0,0 C 1.997,25.705 6.696,50.962 13.928,75.386 9.331,77.384 5.025,80.263 1.265,84.022 -7.87,93.158 -11.806,105.524 -10.542,117.444 -17.713,99.399 -13.398,78.742 -17.767,62.863 -22.56,45.446 -36.983,29.441 -38.95,11.148 c -0.025,-0.231 -0.048,-0.462 -0.069,-0.693 z"             style="fill:#91deb3;fill-opacity:1;fill-rule:nonzero;stroke:none"             id="path5984" /></g><g           id="g5986"           transform="translate(237.6011,377.5083)"><path             d="M 0,0 C 19.613,13.444 40.452,24.913 62.205,34.269 56.429,47.644 58.094,63.462 67.199,75.429 64.831,74.826 62.492,74.074 60.196,73.131 42.495,65.866 30.739,48.057 15.707,39.797 0.52,31.451 -20.898,31.011 -36.272,19.893 c -3.213,-2.326 -6.06,-4.989 -8.652,-7.855 z"             style="fill:#91deb3;fill-opacity:1;fill-rule:nonzero;stroke:none"             id="path5988" /></g><g           id="g5990"           transform="translate(45.7632,83.9556)"><path             d="m 0,0 c 2.71,-8.326 5.744,-16.077 6.966,-23.169 0.889,-5.159 1.411,-10.578 1.916,-15.818 0.014,-0.148 0.029,-0.295 0.043,-0.443 1.837,-19.045 25.018,-27.357 38.548,-13.827 l 1.289,1.29 c -10.933,10.933 -16.778,25.952 -16.11,41.4 l 0.077,1.797 z"             style="fill:#91deb3;fill-opacity:1;fill-rule:nonzero;stroke:none"             id="path5992" /></g><g           id="g5994"           transform="translate(475.7187,465.5972)"><path             d="m 0,0 c -5.454,0.518 -10.923,1.024 -16.171,1.917 -15.402,2.62 -34.074,13.891 -54.917,11.651 -3.79,-0.406 -7.478,-1.346 -11.099,-2.622 l -10.782,-40.241 c 15.004,2.556 30.225,4.184 45.582,4.848 l 18.651,0.806 c 15.447,0.667 30.466,-5.177 41.4,-16.11 l 1.2,1.2 C 27.407,-25.009 19.066,-1.811 0,0"             style="fill:#91deb3;fill-opacity:1;fill-rule:nonzero;stroke:none"             id="path5996" /></g><g           id="g5998"           transform="translate(175.0596,364.4844)"><path             d="M 0,0 C -2.668,-3.941 -5.414,-7.605 -8.491,-10.682 -20.158,-22.349 -40.404,-29.3 -52.094,-45.461 -58.228,-53.941 -61.119,-64.3 -63.89,-74.432 l 17.32,-29.999 c 15.711,26.981 34.936,52.041 57.361,74.467 h 10e-4 c 7.332,7.332 14.945,14.322 22.815,20.959 z"             style="fill:#91deb3;fill-opacity:1;fill-rule:nonzero;stroke:none"             id="path6000" /></g><g           id="g6002"           transform="translate(351.125,429.4253)"><path             d="M 0,0 8.869,33.1 C -7.069,43.512 -28.648,41.721 -42.644,27.725 -54.917,15.452 -57.806,-2.652 -51.31,-17.67 -34.693,-10.526 -17.543,-4.616 0,0"             style="fill:#fc636f;fill-opacity:1;fill-rule:nonzero;stroke:none"             id="path6004" /></g><g           id="g6006"           transform="translate(382.7393,436.2627)"><path             d="m 0,0 13.441,50.165 c 0.453,1.688 -0.549,3.422 -2.237,3.875 l -21.674,5.808 c -1.688,0.452 -3.424,-0.55 -3.876,-2.238 L -31.614,-6.837 C -21.205,-4.098 -10.657,-1.814 0,0"             style="fill:#fcbf66;fill-opacity:1;fill-rule:nonzero;stroke:none"             id="path6008" /></g><g           id="g6010"           transform="translate(208.6738,355.4775)"><path             d="m 0,0 c 9.302,7.842 18.964,15.19 28.942,22.027 l -69.337,18.578 c -1.688,0.453 -3.423,-0.549 -3.876,-2.237 l -5.807,-21.674 c -0.452,-1.688 0.55,-3.423 2.238,-3.875 z"             style="fill:#fecc83;fill-opacity:1;fill-rule:nonzero;stroke:none"             id="path6012" /></g><g           id="g6014"           transform="translate(128.4805,260.0693)"><path             d="m 0,0 -25.06,43.406 c -0.874,1.513 -2.809,2.032 -4.323,1.158 L -48.815,33.345 c -1.514,-0.874 -2.032,-2.809 -1.159,-4.323 l 34.207,-59.248 C -10.988,-19.918 -5.727,-9.832 0,0"             style="fill:#fcbf66;fill-opacity:1;fill-rule:nonzero;stroke:none"             id="path6016" /></g><g           id="g6018"           transform="translate(112.7139,229.8437)"><path             d="m 0,0 -15.468,26.792 c -5.849,-1.955 -11.345,-5.261 -16.002,-9.917 -16.051,-16.051 -16.051,-42.076 0,-58.126 3.752,-3.752 8.049,-6.627 12.635,-8.625 C -13.775,-32.799 -7.478,-16.129 0,0"             style="fill:#fb4954;fill-opacity:1;fill-rule:nonzero;stroke:none"             id="path6020" /></g><g           id="g6022"           transform="translate(79.1758,91.9941)"><path             d="m 0,0 c 0.182,4.206 0.437,8.402 0.762,12.586 l -55.555,14.886 c -1.688,0.453 -3.423,-0.549 -3.875,-2.237 L -64.476,3.561 c -0.452,-1.688 0.55,-3.423 2.238,-3.875 l 61.512,-16.483 z"             style="fill:#fecc83;fill-opacity:1;fill-rule:nonzero;stroke:none"             id="path6024" /></g><g           id="g6026"           transform="translate(414.3926,261.6963)"><path             d="m 0,0 -155.808,-155.808 c -3.134,-3.134 -8.216,-3.134 -11.351,0 l -95.66,95.661 c -0.58,0.58 -0.58,1.521 0,2.101 l 165.057,165.058 c 0.58,0.58 1.522,0.58 2.102,0 L 0,11.352 C 3.135,8.217 3.135,3.135 0,0"             style="fill:#faf6f6;fill-opacity:1;fill-rule:nonzero;stroke:none"             id="path6028" /></g><g           id="g6030"           transform="translate(414.3926,273.0479)"><path             d="m 0,0 -95.66,95.66 c -0.58,0.58 -1.522,0.58 -2.102,0 l -8.949,-8.949 41.314,-41.314 c 17.161,-17.161 17.161,-44.984 0,-62.145 l -126.086,-126.087 24.324,-24.324 c 3.135,-3.135 8.217,-3.135 11.351,0 L 0,-11.352 C 3.135,-8.217 3.135,-3.135 0,0"             style="fill:#f8f1f1;fill-opacity:1;fill-rule:nonzero;stroke:none"             id="path6032" /></g><g           id="g6034"           transform="translate(154.6016,198.5205)"><path             d="m 0,0 c -0.875,-8.734 -1.401,-17.947 -1.401,-27.465 0,-49.364 14.172,-90.481 17.507,-99.474 0.241,-0.649 1.153,-0.649 1.394,0 3.167,8.537 16.1,46.026 17.402,92.037 z"             style="fill:#feccba;fill-opacity:1;fill-rule:nonzero;stroke:none"             id="path6036" /></g><g           id="g6038"           transform="translate(182.4248,234.502)"><path             d="m 0,0 c -4.041,18.323 -8.611,31.409 -10.323,36.026 -0.241,0.649 -1.153,0.649 -1.394,0 -2.461,-6.635 -10.822,-30.758 -15.036,-62.779 z"             style="fill:#feccba;fill-opacity:1;fill-rule:nonzero;stroke:none"             id="path6040" /></g><g           id="g6042"           transform="translate(272.0205,324.0972)"><path             d="m 0,0 c -4.417,17.368 -9.256,29.66 -11.017,33.884 -0.255,0.614 -1.121,0.614 -1.376,0 -2.634,-6.321 -12.163,-30.704 -16.852,-63.128 z"             style="fill:#feccba;fill-opacity:1;fill-rule:nonzero;stroke:none"             id="path6044" /></g><g           id="g6046"           transform="translate(348.5479,398.8364)"><path             d="m 0,0 c -2.272,-5.073 -9.688,-22.826 -13.545,-46.399 l 30.808,-30.808 c 0.012,0.798 0.019,1.599 0.019,2.403 C 17.282,-37.807 4.476,-6.963 1.357,0 1.094,0.587 0.263,0.587 0,0"             style="fill:#feccba;fill-opacity:1;fill-rule:nonzero;stroke:none"             id="path6048" /></g><g           id="g6050"           transform="translate(69.436,222.0137)"><path             d="m 0,0 c -7.17,-18.044 -2.856,-38.702 -7.225,-54.581 -4.792,-17.417 -19.216,-33.421 -21.183,-51.715"             style="fill:none;stroke:#000000;stroke-width:15;stroke-linecap:round;stroke-linejoin:round;stroke-miterlimit:10;stroke-dasharray:none;stroke-opacity:1"             id="path6052" /></g><g           id="g6054"           transform="translate(304.8003,452.9375)"><path             d="m 0,0 c -2.368,-0.604 -4.708,-1.355 -7.003,-2.298 -17.702,-7.265 -29.457,-25.074 -44.49,-33.334 -15.187,-8.346 -36.604,-8.786 -51.978,-19.905 -3.213,-2.325 -6.06,-4.988 -8.652,-7.855"             style="fill:none;stroke:#000000;stroke-width:15;stroke-linecap:round;stroke-linejoin:round;stroke-miterlimit:10;stroke-dasharray:none;stroke-opacity:1"             id="path6056" /></g><g           id="g6058"           transform="translate(45.7632,83.9556)"><path             d="m 0,0 c 2.71,-8.326 5.744,-16.077 6.966,-23.169 0.889,-5.159 1.411,-10.578 1.916,-15.818 0.014,-0.148 0.029,-0.295 0.043,-0.443 1.837,-19.045 25.018,-27.357 38.548,-13.827 l 1.289,1.29"             style="fill:none;stroke:#000000;stroke-width:15;stroke-linecap:round;stroke-linejoin:round;stroke-miterlimit:10;stroke-dasharray:none;stroke-opacity:1"             id="path6060" /></g><g           id="g6062"           transform="translate(488.3828,425.8457)"><path             d="m 0,0 1.2,1.2 c 13.543,13.543 5.202,36.741 -13.864,38.551 -5.454,0.519 -10.923,1.025 -16.171,1.917 -15.402,2.621 -34.074,13.892 -54.917,11.652 -3.79,-0.407 -7.478,-1.346 -11.099,-2.622"             style="fill:none;stroke:#000000;stroke-width:15;stroke-linecap:round;stroke-linejoin:round;stroke-miterlimit:10;stroke-dasharray:none;stroke-opacity:1"             id="path6064" /></g><g           id="g6066"           transform="translate(175.0596,364.4844)"><path             d="M 0,0 C -2.668,-3.941 -5.414,-7.605 -8.491,-10.682 -20.158,-22.349 -40.404,-29.3 -52.094,-45.461 -58.228,-53.941 -61.119,-64.3 -63.89,-74.432"             style="fill:none;stroke:#000000;stroke-width:15;stroke-linecap:round;stroke-linejoin:round;stroke-miterlimit:10;stroke-dasharray:none;stroke-opacity:1"             id="path6068" /></g><g           id="g6070"           transform="translate(359.9937,462.5249)"><path             d="M 0,0 C -15.938,10.413 -37.517,8.622 -51.513,-5.375 -63.786,-17.648 -66.674,-35.751 -60.179,-50.77"             style="fill:none;stroke:#000000;stroke-width:15;stroke-linecap:round;stroke-linejoin:round;stroke-miterlimit:10;stroke-dasharray:none;stroke-opacity:1"             id="path6072" /></g><g           id="g6074"           transform="translate(382.7393,436.2627)"><path             d="m 0,0 13.441,50.165 c 0.453,1.688 -0.549,3.422 -2.237,3.875 l -21.674,5.808 c -1.688,0.452 -3.424,-0.55 -3.876,-2.238 L -31.614,-6.837"             style="fill:none;stroke:#000000;stroke-width:15;stroke-linecap:round;stroke-linejoin:round;stroke-miterlimit:10;stroke-dasharray:none;stroke-opacity:1"             id="path6076" /></g><g           id="g6078"           transform="translate(237.6157,377.5044)"><path             d="m 0,0 -69.337,18.579 c -1.688,0.452 -3.423,-0.55 -3.875,-2.238 L -79.02,-5.333 c -0.452,-1.688 0.55,-3.423 2.238,-3.875 l 47.84,-12.819"             style="fill:none;stroke:#000000;stroke-width:15;stroke-linecap:round;stroke-linejoin:round;stroke-miterlimit:10;stroke-dasharray:none;stroke-opacity:1"             id="path6080" /></g><g           id="g6082"           transform="translate(128.4805,260.0693)"><path             d="m 0,0 -25.06,43.406 c -0.874,1.513 -2.809,2.032 -4.323,1.158 L -48.815,33.345 c -1.514,-0.874 -2.032,-2.809 -1.159,-4.323 l 34.207,-59.248"             style="fill:none;stroke:#000000;stroke-width:15;stroke-linecap:round;stroke-linejoin:round;stroke-miterlimit:10;stroke-dasharray:none;stroke-opacity:1"             id="path6084" /></g><g           id="g6086"           transform="translate(97.2456,256.6353)"><path             d="m 0,0 c -5.849,-1.955 -11.345,-5.26 -16.002,-9.917 -16.051,-16.051 -16.051,-42.075 0,-58.126 3.752,-3.752 8.049,-6.626 12.635,-8.624"             style="fill:none;stroke:#000000;stroke-width:15;stroke-linecap:round;stroke-linejoin:round;stroke-miterlimit:10;stroke-dasharray:none;stroke-opacity:1"             id="path6088" /></g><g           id="g6090"           transform="translate(79.938,104.5806)"><path             d="m 0,0 -55.555,14.886 c -1.688,0.452 -3.424,-0.55 -3.876,-2.238 l -5.807,-21.673 c -0.452,-1.688 0.55,-3.424 2.238,-3.876 l 61.512,-16.482"             style="fill:none;stroke:#000000;stroke-width:15;stroke-linecap:round;stroke-linejoin:round;stroke-miterlimit:10;stroke-dasharray:none;stroke-opacity:1"             id="path6092" /></g><g           id="g6094"           transform="translate(208.3594,144.7627)"><path             d="m 0,0 -56.786,56.786 c -0.58,0.58 -0.58,1.522 0,2.102 l 165.057,165.057 c 0.581,0.58 1.522,0.58 2.102,0 l 95.66,-95.66 c 3.135,-3.135 3.135,-8.217 0,-11.351 L 50.226,-38.874 c -3.135,-3.135 -8.217,-3.135 -11.352,0 l -13.687,13.687"             style="fill:none;stroke:#000000;stroke-width:15;stroke-linecap:round;stroke-linejoin:round;stroke-miterlimit:10;stroke-dasharray:none;stroke-opacity:1"             id="path6096" /></g><g           id="g6098"           transform="translate(393.5317,437.9351)"><path             d="m 0,0 c -78.333,-10.939 -151.354,-47.088 -207.726,-103.459 v -10e-4 c -64.635,-64.635 -102.683,-151.158 -106.63,-242.481 l -0.806,-18.65 c -0.667,-15.448 5.177,-30.468 16.111,-41.401 21.549,-21.549 56.487,-21.549 78.036,0 l 74.331,74.331"             style="fill:none;stroke:#000000;stroke-width:15;stroke-linecap:round;stroke-linejoin:round;stroke-miterlimit:10;stroke-dasharray:none;stroke-opacity:1"             id="path6100" /></g><g           id="g6102"           transform="translate(414.0068,273.4336)"><path             d="m 0,0 74.331,74.331 c 21.549,21.549 21.549,56.487 10e-4,78.036 h -10e-4 c -10.933,10.934 -25.953,16.778 -41.4,16.111 L 14.28,167.672"             style="fill:none;stroke:#000000;stroke-width:15;stroke-linecap:round;stroke-linejoin:round;stroke-miterlimit:10;stroke-dasharray:none;stroke-opacity:1"             id="path6104" /></g><g           id="g6106"           transform="translate(281.874,238.4072)"><path             d="m 0,0 c 0,0 -1.865,-17.114 -23.703,-22.965 -15.385,-4.122 -29.716,-0.524 -32.01,8.037 -2.294,8.561 8.318,18.843 23.703,22.965 C -10.172,13.889 0,0 0,0 Z"             style="fill:none;stroke:#000000;stroke-width:15;stroke-linecap:round;stroke-linejoin:round;stroke-miterlimit:10;stroke-dasharray:none;stroke-opacity:1"             id="path6108" /></g><g           id="g6110"           transform="translate(281.874,238.4072)"><path             d="M 0,0 -1.005,-6.962 C -3.5,-24.246 2.113,-41.716 14.209,-54.312 l 0.477,-0.497"             style="fill:none;stroke:#000000;stroke-width:15;stroke-linecap:round;stroke-linejoin:round;stroke-miterlimit:10;stroke-dasharray:none;stroke-opacity:1"             id="path6112" /></g><g           id="g6114"           transform="translate(281.874,238.4072)"><path             d="m 0,0 c 0,0 17.114,1.865 22.965,23.703 4.122,15.385 0.524,29.716 -8.037,32.01 C 6.367,58.007 -3.915,47.395 -8.037,32.01 -13.889,10.172 0,0 0,0 Z"             style="fill:none;stroke:#000000;stroke-width:15;stroke-linecap:round;stroke-linejoin:round;stroke-miterlimit:10;stroke-dasharray:none;stroke-opacity:1"             id="path6116" /></g><g           id="g6118"           transform="translate(281.874,238.4072)"><path             d="M 0,0 7.409,1.017 C 24.787,3.4 42.29,-2.398 54.808,-14.686 h 10e-4"             style="fill:none;stroke:#000000;stroke-width:15;stroke-linecap:round;stroke-linejoin:round;stroke-miterlimit:10;stroke-dasharray:none;stroke-opacity:1"             id="path6120" /></g><g           id="g6122"           transform="translate(163.397,356.8843)"><path             d="M 0,0 176.948,-176.948"             style="fill:none;stroke:#000000;stroke-width:15;stroke-linecap:round;stroke-linejoin:round;stroke-miterlimit:10;stroke-dasharray:none;stroke-opacity:1"             id="path6124" /></g><g           id="g6126"           transform="translate(245.2729,413.7134)"><path             d="m 0,0 c -8.477,13.591 -6.81,31.705 5.002,43.517 13.753,13.753 36.051,13.753 49.803,0 1.424,-1.424 2.7,-2.94 3.829,-4.528"             style="fill:none;stroke:#000000;stroke-width:15;stroke-linecap:round;stroke-linejoin:round;stroke-miterlimit:10;stroke-dasharray:none;stroke-opacity:1"             id="path6128" /></g><g           id="g6130"           transform="translate(327.8125,468.0259)"><path             d="m 0,0 c -2.22,3.266 -4.777,6.371 -7.672,9.266 -24.833,24.833 -65.095,24.833 -89.928,0 -19.441,-19.441 -23.661,-48.339 -12.662,-71.886"             style="fill:none;stroke:#000000;stroke-width:15;stroke-linecap:round;stroke-linejoin:round;stroke-miterlimit:10;stroke-dasharray:none;stroke-opacity:1"             id="path6132" /></g><g           id="g6134"           transform="translate(53.7905,147.9922)"><path             d="m 0,0 c -3.456,1.606 -6.694,3.835 -9.545,6.687 -13.063,13.063 -13.063,34.242 0,47.305 6.176,6.176 14.168,9.432 22.257,9.767"             style="fill:none;stroke:#000000;stroke-width:15;stroke-linecap:round;stroke-linejoin:round;stroke-miterlimit:10;stroke-dasharray:none;stroke-opacity:1"             id="path6136" /></g><g           id="g6138"           transform="translate(13.5835,204.7856)"><path             d="M 0,0 C -10.972,-22.523 -7.103,-50.453 11.606,-69.162 16.799,-74.354 22.701,-78.403 29,-81.309"             style="fill:none;stroke:#000000;stroke-width:15;stroke-linecap:round;stroke-linejoin:round;stroke-miterlimit:10;stroke-dasharray:none;stroke-opacity:1"             id="path6140" /></g><g           id="g6142"           transform="translate(74.7778,238.3379)"><path             d="M 0,0 C -12.571,1.433 -25.507,-1.075 -36.804,-7.525"             style="fill:none;stroke:#000000;stroke-width:15;stroke-linecap:round;stroke-linejoin:round;stroke-miterlimit:10;stroke-dasharray:none;stroke-opacity:1"             id="path6144" /></g><g           id="g6146"           transform="translate(154.6016,198.5205)"><path             d="m 0,0 c -0.875,-8.734 -1.401,-17.947 -1.401,-27.465 0,-49.364 14.172,-90.481 17.507,-99.474 0.241,-0.649 1.153,-0.649 1.394,0 3.167,8.537 16.1,46.026 17.402,92.037"             style="fill:none;stroke:#000000;stroke-width:15;stroke-linecap:round;stroke-linejoin:round;stroke-miterlimit:10;stroke-dasharray:none;stroke-opacity:1"             id="path6148" /></g><g           id="g6150"           transform="translate(182.4248,234.502)"><path             d="m 0,0 c -4.041,18.323 -8.611,31.409 -10.323,36.026 -0.241,0.649 -1.153,0.649 -1.394,0 -2.461,-6.635 -10.822,-30.758 -15.036,-62.779"             style="fill:none;stroke:#000000;stroke-width:15;stroke-linecap:round;stroke-linejoin:round;stroke-miterlimit:10;stroke-dasharray:none;stroke-opacity:1"             id="path6152" /></g><g           id="g6154"           transform="translate(272.0205,324.0972)"><path             d="m 0,0 c -4.417,17.368 -9.256,29.66 -11.017,33.884 -0.255,0.614 -1.121,0.614 -1.376,0 -2.634,-6.321 -12.163,-30.704 -16.852,-63.128"             style="fill:none;stroke:#000000;stroke-width:15;stroke-linecap:round;stroke-linejoin:round;stroke-miterlimit:10;stroke-dasharray:none;stroke-opacity:1"             id="path6156" /></g><g           id="g6158"           transform="translate(365.811,321.6294)"><path             d="m 0,0 c 0.012,0.798 0.019,1.599 0.019,2.403 0,36.997 -12.807,67.841 -15.925,74.804 -0.263,0.587 -1.094,0.587 -1.357,0 -2.273,-5.073 -9.688,-22.826 -13.545,-46.399"             style="fill:none;stroke:#000000;stroke-width:15;stroke-linecap:round;stroke-linejoin:round;stroke-miterlimit:10;stroke-dasharray:none;stroke-opacity:1"             id="path6160" /></g></g></g></g></svg>