<svg id="Capa_1" enable-background="new 0 0 512 512" height="512" viewBox="0 0 512 512" width="512"
    xmlns="http://www.w3.org/2000/svg">
    <g>
        <g>
            <g fill="#315771">
                <path d="m190.69 192.608-16.714 9-16.714-9v-61.81l16.714-9 16.714 9z" />
                <path d="m451.14 192.608-16.714 9-16.714-9v-61.81l16.714-9 16.714 9z" />
            </g>
            <path
                d="m127.518 387.64h353.367c22.384 0 30.968-22.865 30.968-39.968v-124.097c0-17.103-13.865-30.968-30.968-30.968h-353.367c-17.103 0-30.968 13.865-30.968 30.968v124.097c0 18.581 8.583 39.968 30.968 39.968z"
                fill="#f1cd65" />
            <path d="m157.262 130.798h33.428v-18.58l-16.714-9-16.714 9z" fill="#2a4a5f" />
            <path d="m417.712 130.798h33.428v-18.58l-16.714-9-16.714 9z" fill="#2a4a5f" />
            <path
                d="m491.355 70.927h-450.065v-50.282c0-11.402-9.243-20.645-20.645-20.645s-20.645 9.243-20.645 20.645v462.452c0 5.701 2.467 19.323 10.323 19.323h20.645c8.086 0 10.322-13.621 10.322-19.321v-380.462h450.065c8.056 0 18.419-6.826 18.419-20.355-3.402-6.73-10.363-11.355-18.419-11.355z"
                fill="#a26654" />
            <path
                d="m491.355 93.637h-450.065v18.581h450.065c11.402 0 20.645-9.243 20.645-20.645 0-3.346-.814-6.495-2.227-9.29-3.401 6.729-10.362 11.354-18.418 11.354z"
                fill="#8e594c" />
            <path
                d="m30.968 493.419h-20.645c-5.701 0-10.323-4.621-10.323-10.322v18.581c0 5.7 4.622 10.322 10.323 10.322h20.645c5.701 0 10.323-4.622 10.323-10.323v-18.581c-.001 5.702-4.622 10.323-10.323 10.323z"
                fill="#8e594c" />
            <path
                d="m480.884 378.64h-353.366c-17.103 0-30.968-13.865-30.968-30.968v18.581c0 17.103 13.865 30.968 30.968 30.968h353.367c17.103 0 30.968-13.865 30.968-30.968v-18.581c-.001 17.103-13.865 30.968-30.969 30.968z"
                fill="#ebb34f" />
        </g>
        <g fill="#315771">
            <path
                d="m462.779 321.843c-5.585.031-11.587.054-16.087.057v-59.979c0-4.142-3.357-7.5-7.5-7.5s-7.5 3.358-7.5 7.5v67.422c0 3.653 2.632 6.775 6.232 7.392.544.093.986.169 8.344.169 3.601 0 8.858-.019 16.595-.061 4.142-.023 7.481-3.4 7.458-7.542-.023-4.143-3.387-7.468-7.542-7.458z" />
            <path
                d="m193.507 254.292c-4.143 0-7.5 3.358-7.5 7.5v25.082h-31.696v-25.082c0-4.142-3.357-7.5-7.5-7.5s-7.5 3.358-7.5 7.5v67.478c0 4.142 3.357 7.5 7.5 7.5s7.5-3.358 7.5-7.5v-27.396h31.696v27.396c0 4.142 3.357 7.5 7.5 7.5s7.5-3.358 7.5-7.5v-67.478c0-4.142-3.358-7.5-7.5-7.5z" />
            <path
                d="m406.798 269.729c4.142 0 7.5-3.358 7.5-7.5s-3.358-7.5-7.5-7.5h-28.174c-4.143 0-7.5 3.358-7.5 7.5v66.863c0 4.142 3.357 7.5 7.5 7.5h28.174c4.142 0 7.5-3.358 7.5-7.5s-3.358-7.5-7.5-7.5h-20.674v-18.431h18.597c4.143 0 7.5-3.358 7.5-7.5s-3.357-7.5-7.5-7.5h-18.597v-18.432z" />
            <path
                d="m348.011 254.421h-37.266c-4.143 0-7.5 3.358-7.5 7.5s3.357 7.5 7.5 7.5h11.058v59.979c0 4.142 3.357 7.5 7.5 7.5s7.5-3.358 7.5-7.5v-59.979h11.208c4.143 0 7.5-3.358 7.5-7.5s-3.358-7.5-7.5-7.5z" />
            <path
                d="m256.514 254.421c-22.74 0-41.24 18.5-41.24 41.24 0 22.739 18.5 41.239 41.24 41.239 22.739 0 41.239-18.5 41.239-41.239 0-22.74-18.5-41.24-41.239-41.24zm0 67.479c-14.469 0-26.24-11.771-26.24-26.239 0-14.469 11.771-26.24 26.24-26.24s26.239 11.771 26.239 26.24c0 14.468-11.771 26.239-26.239 26.239z" />
        </g>
    </g>
</svg>