<svg id="Capa_1" enable-background="new 0 0 512.003 512.003" height="512"
    viewBox="0 0 512.003 512.003" width="512" xmlns="http://www.w3.org/2000/svg">
    <g>
        <g>
            <path
                d="m379.751 309.505-8.541-5.021-33.75-18.68 9.5-53.5-5.75-81.5-6.752-5.048-78.957 28.318-7.041 11.23v285l7.041 12.846 124.25-44.563 6.709-8.283v-128.371z"
                fill="#75cef9" />
            <path
                d="m201.325 154.644h-7.95l-69.915 74.097v203.23l7.79 6.616 124.251 44.563v-309.076z"
                fill="#90d8f9" />
            <path
                d="m128.126 220.027-59.002-65.384h-7.949l-47.309 16.968c-4.119 1.477-6.867 5.382-6.867 9.758v287.049c0 7.175 7.113 12.18 13.866 9.758l110.384-39.59v-209.845z"
                fill="#75cef9" />
            <path
                d="m66.491 452.182v-297.538h-5.316l-47.309 16.968c-4.119 1.477-6.867 5.382-6.867 9.758v287.049c0 7.175 7.113 12.18 13.866 9.758l49.473-17.744c-2.318-1.951-3.847-4.864-3.847-8.251z"
                fill="#6bbef6" />
            <path
                d="m131.25 29.408c-70.673 0-108.388 83.293-61.764 136.404l50.94 58.028c5.737 6.535 15.911 6.535 21.648 0l50.94-58.028c46.623-53.112 8.909-136.404-61.764-136.404zm0 127.994c-25.211 0-45.648-20.437-45.648-45.648s20.437-45.648 45.648-45.648 45.648 20.437 45.648 45.648c0 25.21-20.437 45.648-45.648 45.648z"
                fill="#f87c68" />
            <g>
                <path
                    d="m111.391 165.812c-6.788-7.733-11.777-16.108-15.148-24.77-6.639-7.927-10.642-18.139-10.642-29.288 0-11.213 4.05-21.475 10.757-29.422 9.138-23.853 29.053-43.498 55.843-50.328-6.59-1.68-13.589-2.596-20.952-2.596-70.673 0-108.387 83.293-61.763 136.404l50.94 58.028c5.737 6.535 15.912 6.535 21.648 0l10.129-11.538z"
                    fill="#ec625e" />
            </g>
            <path
                d="m379.751 129.511-45.293 16.245c1.868 12.144 1.324 27.417-11.579 32.068-21.5 7.75-23.506 31.5-5.253 34s27.753 10.25 21.753 24.25-26.5 53.012 9 70.256c9.809 4.765 20.572 4.964 31.372 3.174l4.336-7.201v-166.785z"
                fill="#95d6a4" />
            <path
                d="m453.46 388.971c-27.667-24.667 17.667-42.333 7.333-79.466-10.333-37.133-73.333-8.701-73.333-8.701l-7.708 8.701v129.082l87.218 31.281c38.843-25.77 14.156-56.231-13.51-80.897z"
                fill="#90d8f9" />
            <path
                d="m490.136 478.176c6.754 2.422 13.866-2.583 13.866-9.758v-287.049c0-4.376-2.748-8.281-6.867-9.758l-117.384-42.1v179.994c28.287-4.687 56.825-23.042 69.128-8.93 17 19.5 6 35 0 40s-28.5 42 2 59.5c27.545 15.804 40.114 42.162 16.091 69.794z"
                fill="#b3e59f" />
        </g>
        <g>
            <path
                d="m105.64 290.753c-3.713 0-7.132-1.7-9.383-4.667-2.067-2.726-5.211-4.288-8.625-4.288h-.002c-3.413.001-6.557 1.564-8.623 4.288-2.25 2.966-5.67 4.667-9.382 4.667s-7.132-1.701-9.381-4.665c-2.067-2.726-5.211-4.289-8.624-4.29h-.002c-3.413 0-6.558 1.563-8.627 4.289-2.249 2.966-5.668 4.666-9.381 4.666-4.143 0-7.5 3.357-7.5 7.5s3.357 7.5 7.5 7.5c6.778 0 13.125-2.488 18.008-6.952 4.884 4.464 11.229 6.952 18.007 6.952 6.776 0 13.123-2.488 18.007-6.953 4.884 4.465 11.229 6.953 18.008 6.953 4.143 0 7.5-3.357 7.5-7.5s-3.358-7.5-7.5-7.5z" />
            <path
                d="m229.89 340.2c-3.712 0-7.132-1.7-9.381-4.664-2.067-2.727-5.212-4.29-8.626-4.29s-6.559 1.563-8.625 4.288c-2.25 2.966-5.67 4.666-9.382 4.666s-7.132-1.7-9.383-4.666c-2.067-2.725-5.211-4.288-8.625-4.288-3.413 0-6.557 1.563-8.625 4.288-2.25 2.966-5.67 4.666-9.382 4.666-4.143 0-7.5 3.357-7.5 7.5s3.357 7.5 7.5 7.5c6.777 0 13.124-2.488 18.008-6.952 4.883 4.464 11.229 6.952 18.007 6.952s13.122-2.487 18.007-6.952c4.884 4.465 11.229 6.952 18.007 6.952 4.143 0 7.5-3.357 7.5-7.5s-3.358-7.5-7.5-7.5z" />
            <path
                d="m282.112 404.647c6.776 0 13.123-2.488 18.007-6.953 4.884 4.465 11.229 6.953 18.008 6.953 6.776 0 13.122-2.488 18.007-6.952 4.884 4.464 11.229 6.952 18.007 6.952 4.143 0 7.5-3.357 7.5-7.5s-3.357-7.5-7.5-7.5c-3.712 0-7.132-1.701-9.381-4.665-2.067-2.727-5.212-4.29-8.626-4.29s-6.559 1.563-8.625 4.288c-2.25 2.966-5.67 4.667-9.382 4.667-3.713 0-7.132-1.7-9.383-4.667-2.067-2.726-5.211-4.288-8.625-4.288h-.002c-3.413.001-6.557 1.564-8.623 4.288-2.25 2.966-5.67 4.667-9.382 4.667-4.143 0-7.5 3.357-7.5 7.5s3.358 7.5 7.5 7.5z" />
            <path
                d="m105.64 251.739c-3.713 0-7.132-1.7-9.383-4.666-2.067-2.726-5.211-4.288-8.625-4.288h-.002c-3.413.001-6.557 1.564-8.623 4.288-2.25 2.966-5.67 4.666-9.382 4.666s-7.132-1.7-9.382-4.667c-2.067-2.724-5.21-4.286-8.623-4.287h-.002c-3.412 0-6.556 1.562-8.627 4.289-2.249 2.965-5.668 4.665-9.381 4.665-4.143 0-7.5 3.357-7.5 7.5s3.357 7.5 7.5 7.5c6.779 0 13.126-2.489 18.008-6.952 4.884 4.464 11.229 6.952 18.007 6.952s13.123-2.488 18.007-6.952c4.883 4.464 11.229 6.952 18.008 6.952 4.143 0 7.5-3.357 7.5-7.5s-3.358-7.5-7.5-7.5z" />
            <path
                d="m203.258 296.519c-2.25 2.966-5.67 4.667-9.382 4.667s-7.132-1.701-9.383-4.667c-2.067-2.725-5.211-4.288-8.625-4.288-3.413 0-6.557 1.563-8.625 4.288-2.25 2.966-5.67 4.667-9.382 4.667-4.143 0-7.5 3.357-7.5 7.5s3.357 7.5 7.5 7.5c6.777 0 13.124-2.488 18.008-6.953 4.884 4.465 11.229 6.953 18.007 6.953 6.776 0 13.122-2.488 18.007-6.952 4.884 4.464 11.229 6.952 18.007 6.952 4.143 0 7.5-3.357 7.5-7.5s-3.357-7.5-7.5-7.5c-3.712 0-7.132-1.701-9.381-4.665-2.067-2.727-5.212-4.29-8.626-4.29s-6.559 1.563-8.625 4.288z" />
            <path
                d="m282.112 365.632c6.776 0 13.123-2.488 18.007-6.953 4.884 4.465 11.229 6.953 18.008 6.953 6.776 0 13.122-2.488 18.007-6.952 4.884 4.464 11.229 6.952 18.007 6.952 4.143 0 7.5-3.357 7.5-7.5s-3.357-7.5-7.5-7.5c-3.712 0-7.132-1.701-9.381-4.665-2.067-2.727-5.212-4.29-8.626-4.29s-6.559 1.563-8.625 4.288c-2.25 2.966-5.67 4.667-9.382 4.667-3.713 0-7.132-1.7-9.383-4.667-2.067-2.726-5.211-4.288-8.625-4.288h-.002c-3.413.001-6.557 1.564-8.623 4.288-2.25 2.966-5.67 4.667-9.382 4.667-4.143 0-7.5 3.357-7.5 7.5s3.358 7.5 7.5 7.5z" />
            <path
                d="m511.802 178.462c-.014-.093-.028-.186-.044-.279-.596-3.586-2.269-6.876-4.735-9.453-1.873-1.956-4.201-3.502-6.855-4.453l-117.384-42.101c-.106-.038-.214-.061-.321-.094-.146-.045-.292-.092-.44-.129-.151-.037-.302-.062-.454-.089-.14-.025-.279-.052-.42-.069-.159-.019-.317-.027-.476-.036-.137-.008-.273-.018-.411-.018-.161 0-.321.011-.481.021-.136.009-.272.015-.409.031-.16.019-.318.049-.476.078-.135.025-.27.047-.404.079-.157.038-.311.088-.466.136-.101.032-.205.053-.305.089l-121.719 43.655-43.327-15.54c3.022-6.173 5.307-12.658 6.815-19.424.901-4.043-1.646-8.051-5.688-8.952-4.041-.898-8.05 1.646-8.952 5.688-2.814 12.625-8.83 23.712-16.972 32.984l-50.939 58.028c-2.716 3.095-7.589 3.174-10.374-.001-.879-1.001-49.62-56.521-51.093-58.208-42.193-48.365-7.771-123.773 56.279-123.773 41.359 0 66.889 30.688 73.105 59.201.883 4.047 4.885 6.612 8.926 5.73 4.047-.883 6.612-4.879 5.73-8.926-9.116-41.808-45.205-71.006-87.763-71.006-67.804 0-109.033 71.004-80.876 128.643l-39.039 14.001c-7.078 2.539-11.834 9.298-11.834 16.819v287.049c0 12.347 12.268 20.988 23.898 16.817l107.852-38.682 121.719 43.655c1.687.601 3.479.564 5.064 0l48.346-17.34c3.898-1.398 5.926-5.692 4.527-9.592-1.399-3.899-5.693-5.924-9.592-4.527l-38.313 13.741v-293.138l64.751-23.224c-.113 6.588-1.877 12.643-7.415 14.64-14.57 5.252-23.82 17.706-22.495 30.287 1.03 9.781 8.221 16.755 18.767 18.199 8.604 1.179 14.772 3.708 16.503 6.767 1.62 2.86-.646 7.176-1.983 10.186-3.667 8.24-9.803 22.032-10.52 36.184-1.481 29.275 22.609 47.249 51.644 45.5v115.417l-37.962 13.616c-3.898 1.398-5.926 5.692-4.527 9.592s5.694 5.924 9.592 4.527l40.397-14.489 84.685 30.373 23.166 8.309c11.656 4.18 23.899-4.5 23.899-16.817v-287.05c0-.89-.072-1.769-.201-2.632zm-387.552 254.571-105.416 37.808c-1.869.675-3.834-.709-3.834-2.698v-287.049c0-1.207.763-2.291 1.898-2.698l41.813-14.997c1.555 2.159 3.774 4.963 5.638 7.086l50.94 58.027v-.001c2.464 2.808 5.651 4.924 8.96 6.13v198.392zm124.251 39.183-109.251-39.183v-198.392c3.511-1.282 6.628-3.471 8.961-6.129l50.939-58.027c1.714-1.952 3.905-4.674 5.646-7.083l43.704 15.676v293.138zm124.251-169.61c-8.09.623-14.739-.453-20.595-3.297-22.05-10.711-18.675-30.645-6.825-57.28 1.872-4.206 6.831-13.953 1.335-23.669-4.262-7.532-13.522-12.323-27.523-14.241-3.613-.495-5.594-2.146-5.885-4.909-.506-4.807 3.682-11.366 12.665-14.604 7.396-2.666 18.862-10.602 17.157-34.069l29.671-10.642zm92.216 158.121-77.216-27.694v-117.653c23.604-5.322 48.787-18.398 55.975-10.153 5.197 5.961 7.611 11.753 7.176 17.216-.43 5.396-3.676 9.887-6.324 12.094-5.282 4.402-17.851 23.629-16.171 42.902 1.069 12.275 7.723 22.256 19.24 28.864 14.091 8.085 22.858 18.512 24.688 29.36 1.372 8.139-1.109 16.552-7.368 25.064zm32.035 7.416c0 1.975-1.949 3.373-3.835 2.698l-13.614-4.883c8.396-13.207 8.916-24.824 7.573-32.789-2.59-15.354-13.96-29.517-32.015-39.875-7.195-4.129-11.036-9.663-11.739-16.919-1.293-13.328 8.213-28.064 10.809-30.314 11.668-9.727 18.883-30.007.852-50.69-14.829-17.011-41.212-2.012-67.281 4.603v-160.08l107.353 38.503c1.136.406 1.898 1.49 1.898 2.697v287.049z" />
            <path
                d="m131.75 58.329c-29.307 0-53.148 23.842-53.148 53.148s23.842 53.148 53.148 53.148 53.148-23.843 53.148-53.148c0-29.306-23.841-53.148-53.148-53.148zm0 91.297c-21.035 0-38.148-17.113-38.148-38.148s17.113-38.148 38.148-38.148 38.148 17.113 38.148 38.148-17.113 38.148-38.148 38.148z" />
        </g>
    </g>
</svg>